<?xml version="1.0" standalone="no"?>
<!DOCTYPE svg PUBLIC "-//W3C//DTD SVG 20010904//EN"
 "http://www.w3.org/TR/2001/REC-SVG-20010904/DTD/svg10.dtd">
<svg version="1.0" xmlns="http://www.w3.org/2000/svg"
 width="124.000000pt" height="124.000000pt" viewBox="0 0 124.000000 124.000000"
 preserveAspectRatio="xMidYMid meet">

<g transform="translate(0.000000,124.000000) scale(0.100000,-0.100000)"
fill="#000000" stroke="none">
<path d="M763 1139 c-18 -5 -35 -14 -38 -19 -3 -6 -32 -10 -64 -10 -32 0 -73
-5 -92 -11 -46 -16 -96 -65 -110 -108 -7 -20 -20 -49 -30 -66 -21 -33 -25 -95
-9 -125 9 -16 5 -22 -19 -34 -31 -17 -41 -34 -41 -72 0 -37 15 -60 50 -74 25
-11 29 -16 23 -39 -3 -14 -14 -37 -25 -50 -10 -13 -18 -35 -18 -48 0 -24 34
-66 60 -75 10 -3 6 -14 -13 -44 -51 -77 -43 -180 17 -219 35 -23 33 -40 -5
-51 -44 -13 -59 -38 -36 -61 17 -18 43 -20 279 -26 72 -2 79 0 106 26 25 25
30 26 42 12 28 -34 79 -10 95 45 14 49 46 90 69 90 47 0 64 61 26 95 -14 12
-20 31 -20 59 0 24 -15 76 -36 126 -68 163 -67 159 -39 182 36 28 33 64 -8
101 -32 28 -33 31 -23 67 9 37 2 93 -19 143 -7 16 -3 17 44 11 42 -5 55 -3 71
11 33 30 25 58 -32 107 -76 64 -129 79 -205 57z m142 -21 c37 -17 31 -24 -19
-20 -47 4 -116 -13 -116 -28 0 -5 17 -2 37 7 64 26 183 -1 198 -45 15 -49 -29
-73 -97 -53 -22 7 -42 10 -45 7 -3 -3 2 -22 12 -43 18 -38 26 -138 12 -160 -5
-8 -19 -7 -54 3 -27 8 -75 19 -108 23 -33 5 -73 14 -89 20 -28 11 -28 13 -24
76 4 68 19 98 39 78 7 -7 10 -38 7 -81 -4 -82 7 -87 17 -7 8 58 -6 109 -30
119 -29 11 -68 -131 -47 -170 10 -18 4 -21 -75 -37 -47 -10 -88 -16 -90 -13
-3 3 -7 24 -9 48 -4 35 3 58 38 128 53 104 81 124 179 126 36 1 76 7 89 14 58
31 118 34 175 8z m-136 -330 c112 -21 181 -59 181 -99 0 -10 -12 -27 -26 -38
-23 -18 -41 -21 -128 -21 -56 0 -116 -4 -134 -9 l-33 -10 30 35 c17 19 31 40
31 46 0 6 -15 -6 -34 -28 -44 -52 -107 -81 -144 -68 -57 20 -26 77 69 125 32
16 59 33 59 39 0 5 -35 -11 -77 -35 -87 -48 -140 -63 -172 -46 -45 25 -18 69
59 97 88 31 197 35 319 12z m-295 -143 c-4 -11 -8 -22 -10 -23 -7 -9 -63 11
-77 26 -14 16 -12 17 39 17 49 0 53 -2 48 -20z m433 -45 c2 -8 23 -58 45 -110
31 -72 42 -112 45 -165 4 -67 2 -74 -46 -175 -39 -83 -54 -106 -72 -108 -25
-4 -49 20 -49 50 0 10 12 36 26 58 22 32 26 51 26 103 l0 64 46 9 c44 8 47 11
48 42 1 38 -23 57 -59 46 l-22 -6 23 21 c29 28 28 57 -3 77 -24 15 -31 15
-108 -1 -67 -14 -90 -15 -125 -6 -79 22 -91 89 -19 110 17 5 79 9 136 8 84 -1
104 -4 108 -17z m-374 -20 c15 0 41 7 57 15 28 14 44 5 19 -11 -11 -6 -9 -32
6 -66 6 -16 1 -18 -39 -18 -26 0 -62 7 -81 14 -42 18 -64 58 -45 81 11 13 15
13 33 0 12 -8 34 -15 50 -15z m35 -86 c42 -1 98 -5 124 -9 32 -5 71 -2 119 9
65 15 75 15 96 1 12 -9 23 -22 23 -30 0 -19 -39 -45 -70 -46 -22 -1 -20 -2 9
-11 19 -5 42 -8 50 -5 21 5 41 -16 41 -42 0 -17 -9 -21 -47 -27 l-48 -6 3 -66
c3 -59 0 -72 -22 -105 -14 -21 -26 -45 -26 -53 0 -34 -31 -73 -66 -84 -47 -16
-140 -8 -161 13 -26 26 0 47 58 47 27 0 49 4 49 10 0 11 -100 1 -117 -13 -7
-5 -13 -18 -13 -28 0 -17 -8 -19 -69 -19 -50 0 -72 4 -81 15 -16 20 -6 31 40
43 19 5 34 14 32 21 -1 6 2 11 8 11 5 0 10 5 10 10 0 6 -9 10 -20 10 -12 0
-32 11 -44 25 -46 49 -42 136 9 205 30 41 31 50 5 50 -26 0 -60 34 -60 62 0
12 7 29 16 39 15 17 18 17 46 -4 24 -18 44 -22 106 -23z m468 -249 c7 -28 -10
-55 -33 -55 -10 0 -13 6 -9 16 3 9 9 27 12 40 8 31 22 31 30 -1z"/>
<path d="M565 1050 c-3 -5 1 -10 9 -10 9 0 16 5 16 10 0 6 -4 10 -9 10 -6 0
-13 -4 -16 -10z"/>
<path d="M760 1017 c0 -19 16 -31 24 -18 3 5 -1 14 -9 21 -12 10 -15 10 -15
-3z"/>
<path d="M532 224 c-28 -20 -30 -69 -3 -84 24 -12 58 -13 65 -1 3 5 -8 8 -25
7 -38 -1 -60 25 -43 52 16 24 55 28 71 6 7 -10 13 -13 13 -6 0 10 -38 42 -50
42 -3 0 -16 -7 -28 -16z"/>
<path d="M85 1110 c11 -5 35 -9 53 -9 31 -1 32 -3 32 -41 0 -22 5 -40 10 -40
11 0 13 24 4 69 -6 30 -8 31 -63 30 -40 0 -50 -3 -36 -9z"/>
<path d="M110 1005 c0 -21 -5 -25 -29 -25 -17 0 -33 -4 -36 -10 -4 -6 28 -10
89 -10 98 0 134 16 49 22 -41 3 -48 6 -51 26 -5 30 -22 28 -22 -3z"/>
<path d="M191 768 c0 -46 3 -78 9 -78 6 0 10 14 10 30 0 25 4 30 25 30 34 0
32 18 -2 22 -23 2 -29 9 -34 38 -5 24 -7 12 -8 -42z"/>
<path d="M50 766 c0 -57 8 -66 55 -66 34 0 48 24 40 67 -8 44 -18 53 -62 53
l-33 0 0 -54z m75 -6 c0 -31 -3 -35 -27 -38 -27 -3 -28 -1 -28 38 0 39 1 41
28 38 24 -3 27 -7 27 -38z"/>
<path d="M104 576 c-10 -25 0 -51 20 -54 27 -6 48 25 35 49 -12 22 -47 25 -55
5z m46 -22 c0 -14 -21 -19 -33 -7 -9 9 13 34 24 27 5 -3 9 -12 9 -20z"/>
<path d="M120 492 c0 -13 -9 -22 -27 -27 -45 -11 -3 -27 62 -23 63 3 79 21 23
26 -24 2 -38 8 -38 17 0 8 -4 17 -10 20 -5 3 -10 -3 -10 -13z"/>
</g>
</svg>
